<svg width="120" height="120" viewBox="0 0 120 120" fill="none" xmlns="http://www.w3.org/2000/svg">
<path fill-rule="evenodd" clip-rule="evenodd" d="M60 60C60 51.7157 66.7157 45 75 45C83.2843 45 90 51.7157 90 60C90 68.2843 83.2843 75 75 75C66.7157 75 60 68.2843 60 60Z" fill="#1ABCFE"/>
<path fill-rule="evenodd" clip-rule="evenodd" d="M30 90C30 81.7157 36.7157 75 45 75H60V90C60 98.2843 53.2843 105 45 105C36.7157 105 30 98.2843 30 90Z" fill="#0ACF83"/>
<path fill-rule="evenodd" clip-rule="evenodd" d="M60 15V45H75C83.2843 45 90 38.2843 90 30C90 21.7157 83.2843 15 75 15H60Z" fill="#FF7262"/>
<path fill-rule="evenodd" clip-rule="evenodd" d="M30 30C30 38.2843 36.7157 45 45 45H60V15H45C36.7157 15 30 21.7157 30 30Z" fill="#F24E1E"/>
<path fill-rule="evenodd" clip-rule="evenodd" d="M30 60C30 68.2843 36.7157 75 45 75H60V45H45C36.7157 45 30 51.7157 30 60Z" fill="#A259FF"/>
</svg>
