<svg width="120" height="120" viewBox="0 0 120 120" fill="none" xmlns="http://www.w3.org/2000/svg">
<path d="M70.0458 59.9096C70.0458 54.5305 65.5484 50.1695 60 50.1695C54.4521 50.1695 49.9542 54.5305 49.9542 59.9096C49.9542 65.2892 54.4521 69.6503 60 69.6503C65.5484 69.6503 70.0458 65.2892 70.0458 59.9096Z" fill="#53C1DE"/>
<path fill-rule="evenodd" clip-rule="evenodd" d="M92.6264 41.8264C94.7479 33.4679 97.4146 17.9681 88.014 12.7131C78.6575 7.48105 66.4816 17.5066 60.0523 23.5244C53.6416 17.5666 41.1238 7.58387 31.7311 12.8555C22.3782 18.1051 25.2624 33.348 27.4309 41.7588C18.7062 44.1615 3.75 49.3365 3.75 59.9096C3.75 70.4528 18.6906 76.083 27.3637 78.4834C25.1872 86.9408 22.4473 101.966 31.8123 107.204C41.2398 112.474 53.7189 102.729 60.2076 96.6458C66.6782 102.699 78.7373 112.508 88.0956 107.255C97.4837 101.986 95.0384 86.694 92.8698 78.2343C101.277 75.8287 116.25 70.3212 116.25 59.9096C116.25 49.438 101.214 44.221 92.6264 41.8264ZM91.5609 73.7511C90.1369 69.3809 88.2151 64.7336 85.8641 59.9328C88.1081 55.2455 89.9552 50.658 91.3393 46.3158C97.6345 48.0854 111.444 52.1299 111.444 59.9096C111.444 67.7624 98.1924 71.8451 91.5609 73.7511ZM85.6874 103.223C78.7052 107.141 68.333 97.7612 63.5544 93.3033C66.7244 89.9416 69.8925 86.0333 72.9843 81.6936C78.4232 81.2258 83.5614 80.4606 88.2211 79.4165C89.7474 85.4002 92.7008 99.286 85.6874 103.223ZM34.2136 103.167C27.2303 99.2626 30.4222 85.8549 32.0234 79.625C36.6313 80.6132 41.7321 81.3243 47.184 81.7529C50.2962 85.9995 53.5559 89.9029 56.8409 93.3212C52.7822 97.1279 41.2294 107.089 34.2136 103.167ZM8.55558 59.9096C8.55558 52.0274 22.2827 48.0125 28.7214 46.2473C30.1294 50.687 31.9761 55.329 34.2046 60.0231C31.9472 64.7872 30.0742 69.503 28.6532 73.9949C22.5138 72.2911 8.55558 67.7968 8.55558 59.9096ZM34.1389 16.8883C41.1506 12.9531 52.0302 22.5369 56.6846 26.8505C53.4165 30.2533 50.1867 34.1272 47.1013 38.3492C41.8103 38.8247 36.7453 39.5884 32.0891 40.6113C30.3422 33.8277 27.1347 20.8192 34.1389 16.8883ZM76.4222 43.4141C80.012 43.8534 83.4509 44.4375 86.6801 45.1524C85.7108 48.1652 84.5024 51.3155 83.0794 54.545C81.0165 50.7498 78.8021 47.031 76.4222 43.4141ZM60.0538 30.1804C62.2703 32.5086 64.4904 35.1086 66.6741 37.9293C62.2445 37.7263 57.8074 37.7253 53.3776 37.9264C55.5634 35.1318 57.8023 32.5357 60.0538 30.1804ZM36.9619 54.5416C35.5623 51.3232 34.3649 48.1589 33.3871 45.1032C36.5969 44.4066 40.0199 43.8375 43.5862 43.4054C41.1998 47.0144 38.9891 50.7318 36.9619 54.5416ZM43.6888 76.7465C40.0045 76.3477 36.5297 75.8076 33.3209 75.1303C34.3141 72.0205 35.5379 68.7881 36.9674 65.5007C39.0226 69.3498 41.2668 73.1034 43.6888 76.7465ZM60.1867 89.9681C57.9089 87.5848 55.637 84.9491 53.418 82.114C57.8731 82.2838 62.3368 82.2841 66.7911 82.0913C64.6005 84.9781 62.3883 87.6177 60.1867 89.9681ZM83.1252 65.3332C84.6289 68.6563 85.8965 71.8713 86.9032 74.9285C83.641 75.6502 80.1195 76.2314 76.4088 76.663C78.8063 72.9777 81.0557 69.201 83.1252 65.3332ZM70.3022 77.2278C63.488 77.6998 56.6309 77.6948 49.8143 77.2664C45.9408 71.7804 42.4929 66.0111 39.5165 60.0216C42.4783 54.0445 45.9013 48.2866 49.7565 42.8092C56.5783 42.3092 63.4418 42.3081 70.2634 42.8121C74.0852 48.2892 77.5032 54.0322 80.5338 59.9555C77.5391 65.9297 74.0982 71.6992 70.3022 77.2278ZM85.6137 16.7497C92.6273 20.672 89.5053 34.6022 87.9731 40.6596C83.306 39.6155 78.2375 38.8382 72.9311 38.3555C69.8397 34.0877 66.6368 30.2069 63.4215 26.8481C68.1357 22.4415 78.6678 12.8658 85.6137 16.7497Z" fill="#53C1DE"/>
</svg>
