<svg width="120" height="120" viewBox="0 0 120 120" fill="none" xmlns="http://www.w3.org/2000/svg">
<g clip-path="url(#clip0_311_316)">
<circle cx="60" cy="60" r="60" fill="#028CB0"/>
<path d="M24.4577 60.25C24.4577 74.4337 32.7077 86.65 44.6385 92.4567L27.5673 45.6856C25.5174 50.2675 24.4578 55.2305 24.4577 60.25ZM60.25 96.0423C64.4067 96.0423 68.4048 95.3125 72.149 94.0115L71.8952 93.5356L60.8846 63.3913L50.1596 94.5827C53.3327 95.5346 56.7279 96.0423 60.25 96.0423ZM65.1683 43.4644L78.1144 81.9538L81.7 70.0231C83.2231 65.0731 84.3971 61.5192 84.3971 58.4413C84.3971 53.999 82.8106 50.9529 81.4779 48.6048C79.6375 45.6221 77.9558 43.1154 77.9558 40.1962C77.9558 36.8962 80.4308 33.85 83.9846 33.85H84.4288C77.8337 27.7955 69.2028 24.4428 60.25 24.4577C54.3221 24.4566 48.4869 25.9291 43.2693 28.7428C38.0518 31.5566 33.6155 35.6232 30.3596 40.5769L32.6442 40.6404C36.3885 40.6404 42.1635 40.1644 42.1635 40.1644C44.1308 40.0692 44.3529 42.8933 42.4173 43.1154C42.4173 43.1154 40.4817 43.3692 38.2923 43.4644L51.3654 82.2394L59.2029 58.7587L53.6183 43.4644C52.3674 43.3954 51.1187 43.2896 49.874 43.1471C47.9385 43.0202 48.1606 40.0692 50.0962 40.1644C50.0962 40.1644 55.9981 40.6404 59.5202 40.6404C63.2644 40.6404 69.0394 40.1644 69.0394 40.1644C70.975 40.0692 71.2288 42.8933 69.2933 43.1154C69.2933 43.1154 67.3577 43.3375 65.1683 43.4644ZM78.2413 91.1875C83.656 88.0391 88.1497 83.5249 91.2734 78.096C94.3971 72.6671 96.0415 66.5135 96.0423 60.25C96.0423 54.0308 94.4558 48.1923 91.6635 43.0837C92.2305 48.7041 91.3796 54.377 89.1885 59.5837L78.2413 91.1875ZM60.25 101.5C49.3098 101.5 38.8177 97.154 31.0818 89.4182C23.346 81.6823 19 71.1902 19 60.25C19 49.3098 23.346 38.8177 31.0818 31.0818C38.8177 23.346 49.3098 19 60.25 19C71.1902 19 81.6823 23.346 89.4182 31.0818C97.154 38.8177 101.5 49.3098 101.5 60.25C101.5 71.1902 97.154 81.6823 89.4182 89.4182C81.6823 97.154 71.1902 101.5 60.25 101.5Z" fill="white"/>
</g>
<defs>
<clipPath id="clip0_311_316">
<rect width="120" height="120" fill="white"/>
</clipPath>
</defs>
</svg>
