<svg width="120" height="120" viewBox="0 0 120 120" fill="none" xmlns="http://www.w3.org/2000/svg">
<circle cx="60" cy="60" r="60" fill="black"/>
<path fill-rule="evenodd" clip-rule="evenodd" d="M57.5038 15.7558C59.0154 14.7481 60.9846 14.7481 62.4962 15.7558L102.996 42.7558C104.248 43.5904 105 44.9954 105 46.5V73.5C105 75.0046 104.248 76.4096 102.996 77.2442L62.4962 104.244C60.9846 105.252 59.0154 105.252 57.5038 104.244L17.0038 77.2442C15.752 76.4096 15 75.0046 15 73.5V46.5C15 44.9954 15.752 43.5904 17.0038 42.7558L57.5038 15.7558ZM24 54.9083L31.6375 60L24 65.0917V54.9083ZM27.6125 73.5L55.5 92.0917V75.9083L39.75 65.4083L27.6125 73.5ZM47.8625 60L60 68.0917L72.1375 60L60 51.9083L47.8625 60ZM64.5 44.0917L80.25 54.5917L92.3875 46.5L64.5 27.9083V44.0917ZM55.5 27.9083V44.0917L39.75 54.5917L27.6125 46.5L55.5 27.9083ZM96 54.9083L88.3625 60L96 65.0917V54.9083ZM92.3875 73.5L80.25 65.4083L64.5 75.9083V92.0917L92.3875 73.5Z" fill="white"/>
</svg>
