<svg width="120" height="120" viewBox="0 0 120 120" fill="none" xmlns="http://www.w3.org/2000/svg">
<rect x="7.5" y="7.5" width="105" height="105" fill="#FFCA28"/>
<path d="M71.25 94.8287L78.9808 89.7133C79.5865 91.6167 83.4231 96.1372 88.2692 96.1372C93.1154 96.1372 95.3654 93.4904 95.3654 91.7357C95.3654 86.9537 90.4169 85.2676 88.0401 84.4579C87.6527 84.3258 87.3336 84.2171 87.1154 84.1221C87.0035 84.0733 86.8343 84.0087 86.6171 83.9257C83.9736 82.9157 74.2212 79.1897 74.2212 68.3893C74.2212 56.493 85.7019 55.125 88.2981 55.125C89.9966 55.125 98.1635 55.3332 102.231 62.9765L94.7308 68.2108C93.0865 64.8799 90.3547 63.7795 88.6731 63.7795C84.5192 63.7795 83.6538 66.8248 83.6538 68.2108C83.6538 72.1004 88.1669 73.8437 91.9775 75.3158C92.9745 75.7009 93.9234 76.0674 94.7308 76.449C98.8846 78.4119 105 81.6238 105 91.7357C105 96.8004 100.752 105 90.0577 105C75.6923 105 71.8846 96.3752 71.25 94.8287Z" fill="#3E3E3E"/>
<path d="M33.75 95.8445L41.8075 90.7317C42.4389 92.6341 44.8922 96.1418 48.452 96.1418C52.0117 96.1418 53.8337 92.4855 53.8337 90.7317V56.25H63.7432V90.7317C63.9036 95.4878 61.2659 105 49.6245 105C38.9212 105 34.4716 98.6387 33.75 95.8445Z" fill="#3E3E3E"/>
</svg>
