<svg width="120" height="120" viewBox="0 0 120 120" fill="none" xmlns="http://www.w3.org/2000/svg">
<path d="M64.3968 8.6202C61.735 7.12324 58.265 7.12997 55.6009 8.6202C42.2583 15.9835 28.9156 23.349 15.5706 30.709C12.9738 32.075 11.2224 34.8637 11.2503 37.7581V82.2479C11.2316 85.1989 13.0733 88.0144 15.737 89.3618C19.5702 91.401 23.2943 93.6474 27.1966 95.5508C31.7044 97.7658 37.3441 98.2557 41.907 95.9457C45.6108 94.0311 47.2558 89.7731 47.2512 85.86C47.2811 71.1772 47.2558 56.494 47.2627 41.8111C47.3507 41.1586 46.8609 40.4611 46.1492 40.4768C44.444 40.4499 42.7366 40.4611 41.0314 40.4723C40.387 40.4114 39.7583 40.9465 39.8069 41.5942C39.7839 56.1825 39.8115 70.7752 39.7931 85.3656C39.8303 87.3839 38.4668 89.3236 36.5217 90.0054C32.0295 91.5799 19.2074 83.2546 19.2074 83.2546C18.7369 83.0367 18.4381 82.5263 18.4842 82.0194C18.4842 67.3411 18.4865 52.6624 18.4842 37.9863C18.4195 37.3946 18.7842 36.8618 19.3276 36.6202C32.6262 29.3003 45.918 21.962 59.2167 14.6376C59.6785 14.3293 60.3225 14.3303 60.7833 14.6399C74.082 21.962 87.3761 29.2935 100.677 36.6138C101.222 36.855 101.571 37.3969 101.516 37.9863C101.514 52.6624 101.52 67.3411 101.511 82.0172C101.551 82.5366 101.282 83.04 100.797 83.2681C87.6227 90.5483 74.2983 97.5937 61.243 105.085C60.6734 105.412 60.0282 105.782 59.3901 105.422C55.9568 103.523 52.5653 101.55 49.1435 99.633C48.7715 99.4008 48.2978 99.3013 47.9098 99.5608C46.3753 100.369 44.9326 101.024 43.1709 101.722C40.6964 102.701 41.0919 103.102 43.3232 104.402C47.3251 106.666 51.3335 108.922 55.335 111.189C57.9692 112.833 61.5089 112.95 64.2281 111.431C77.573 104.077 90.9134 96.7139 104.261 89.3599C106.918 88.0051 108.768 85.2007 108.75 82.2475V37.7581C108.775 34.9224 107.091 32.1835 104.573 30.7972C91.1836 23.398 77.7881 16.0149 64.3968 8.6202Z" fill="#8CC84B"/>
<path d="M84.532 42.0234C79.2944 39.2213 73.0635 39.0721 67.2431 39.4382C63.0384 39.8537 58.616 41.0141 55.5524 44.0282C52.4103 47.0584 51.7265 51.9513 53.2189 55.907C54.2884 58.702 56.9805 60.5198 59.7644 61.4812C63.3506 62.7472 67.1171 63.1386 70.8848 63.5302C74.3213 63.8873 77.7589 64.2446 81.0619 65.2657C82.4112 65.7129 83.9824 66.3969 84.3957 67.8647C84.7772 69.6032 84.359 71.6241 82.9473 72.832C78.4637 76.3808 65.9921 75.837 61.5621 73.044C59.7712 71.8541 58.9994 69.7476 58.6856 67.7405C58.6508 67.1149 58.1472 66.5413 57.468 66.5887C55.7674 66.5686 54.0669 66.573 52.3663 66.5865C51.7728 66.5368 51.1559 66.959 51.1234 67.5644C50.7741 76.7582 59.2176 80.7662 67.1395 81.6488C71.6656 82.08 76.2909 82.0553 80.7478 81.0841C84.098 80.3212 87.457 78.9167 89.7634 76.336C92.6073 73.2 93.1664 68.5307 91.891 64.6243C90.9159 61.7097 88.1294 59.8399 85.2808 58.8781C81.4073 57.5498 76.8164 56.8359 73.308 56.5017C68.2083 56.0159 62.1482 56.2144 60.7049 52.8633C60.1294 51.1087 60.6192 48.9301 62.2318 47.8508C66.4982 44.9568 75.181 45.3412 79.5994 47.503C81.6283 48.5191 82.8038 50.6054 83.289 52.7119C83.379 53.3308 83.7953 53.9762 84.5117 53.9493C86.2004 53.983 87.8894 53.9583 89.5781 53.9605C90.1583 54.0013 90.7935 53.6737 90.9068 53.0799C90.8352 48.6773 88.5871 44.1707 84.532 42.0234Z" fill="#8CC84B"/>
</svg>
