<svg width="120" height="120" viewBox="0 0 120 120" fill="none" xmlns="http://www.w3.org/2000/svg">
<path d="M7.5 45.5C7.5 32.1987 7.5 25.5481 10.0886 20.4677C12.3656 15.9989 15.9989 12.3656 20.4677 10.0886C25.5481 7.5 32.1988 7.5 45.5 7.5H74.5C87.8012 7.5 94.4519 7.5 99.5323 10.0886C104.001 12.3656 107.634 15.9989 109.911 20.4677C112.5 25.5481 112.5 32.1988 112.5 45.5V74.5C112.5 87.8012 112.5 94.4519 109.911 99.5323C107.634 104.001 104.001 107.634 99.5323 109.911C94.4519 112.5 87.8012 112.5 74.5 112.5H45.5C32.1987 112.5 25.5481 112.5 20.4677 109.911C15.9989 107.634 12.3656 104.001 10.0886 99.5323C7.5 94.4519 7.5 87.8012 7.5 74.5V45.5Z" fill="#001E36"/>
<path d="M38.2383 76.2206V42.3732C38.2383 42.1408 38.3313 42.0013 38.5638 42.0013C41.973 42.0013 45.3834 41.8153 48.7937 41.8153C56.0317 41.6706 63.1621 45.7649 63.1621 53.5317C63.1621 64.008 53.9332 65.5735 45.3992 65.5735V76.1276C45.4669 76.4659 45.1582 76.5925 44.8877 76.5925H38.6103C38.3778 76.6855 38.2383 76.546 38.2383 76.2206ZM45.3992 48.3709V59.4364C47.6265 59.6591 50.1202 59.5832 52.2347 58.8785C54.6372 58.1474 55.9546 56.1869 55.9546 53.7177C56.0493 51.6342 54.7925 49.6729 52.8392 48.9288C50.6592 48.1215 47.724 47.9835 45.3992 48.3709Z" fill="#31A8FF"/>
<path d="M83.6681 57.3912C81.5982 56.3072 79.1549 55.8569 76.8326 55.8569C75.6317 55.8569 73.5312 55.9741 73.5312 57.6237C73.5312 59.1552 76.2147 60.0312 77.2976 60.4133C79.0646 61.0177 80.7851 61.8081 82.3661 62.831C84.4793 64.209 85.7606 66.4331 85.7606 68.9682C85.9356 74.7431 79.9233 77.4516 74.8796 77.337C72.2489 77.337 69.4654 76.9958 67.0677 75.8492C66.8352 75.7097 66.6957 75.4773 66.6957 75.1983V69.4796C66.6957 69.3042 66.9868 68.9923 67.1142 69.2471C69.5194 70.6722 72.293 71.2868 75.0656 71.3858C76.3349 71.4493 78.6926 71.2437 78.6926 69.5261C78.5503 67.8183 75.9773 67.0691 74.6471 66.6435C70.7513 65.345 66.6492 62.6809 66.6492 58.1351C66.6492 52.5163 72.0896 49.9523 77.0186 49.9523C79.5296 49.9523 81.853 50.0298 83.9471 51.0216C84.2786 51.1321 84.3191 51.4091 84.3191 51.719V57.0658C84.3191 57.3996 83.9448 57.5757 83.6681 57.3912Z" fill="#31A8FF"/>
<path d="M60 105C58.1865 105 56.466 104.303 55.2105 103.001L16.9879 64.783C14.3374 62.1329 14.3374 57.8555 16.9879 55.2053L55.2105 16.9876C57.861 14.3375 62.139 14.3375 64.7895 16.9876L103.012 55.2053C105.663 57.8555 105.663 62.1329 103.012 64.783L64.7895 103.001C63.534 104.256 61.8135 105 60 105ZM56.5125 101.699C58.419 103.605 61.5345 103.605 63.441 101.699L101.664 63.4812C103.57 61.575 103.57 58.4599 101.664 56.5537L63.441 18.3359C61.5345 16.4297 58.419 16.4297 56.5125 18.3359L18.2898 56.5537C16.3834 58.4599 16.3834 61.575 18.2898 63.4812L56.5125 101.699Z" fill="#31A8FF"/>
</svg>
